<?xml version="1.0" standalone="no"?>
<!DOCTYPE svg PUBLIC "-//W3C//DTD SVG 20010904//EN"
 "http://www.w3.org/TR/2001/REC-SVG-20010904/DTD/svg10.dtd">
<svg version="1.0" xmlns="http://www.w3.org/2000/svg"
 width="225.000000pt" height="225.000000pt" viewBox="0 0 225.000000 225.000000"
 preserveAspectRatio="xMidYMid meet">
<metadata>
Created by potrace 1.16, written by Peter Selinger 2001-2019
</metadata>
<g transform="translate(0.000000,225.000000) scale(0.100000,-0.100000)"
fill="#000000" stroke="none">
<path d="M0 1125 l0 -1125 1125 0 1125 0 0 1125 0 1125 -1125 0 -1125 0 0
-1125z m1323 1080 c431 -75 788 -425 878 -859 23 -111 25 -311 5 -418 -81
-424 -390 -754 -811 -868 -102 -28 -317 -38 -435 -21 -252 37 -502 177 -670
374 -170 200 -260 441 -260 703 0 202 39 363 129 529 155 288 447 503 760 559
103 19 299 19 404 1z"/>
<path d="M1180 1833 l0 -283 23 0 c41 0 217 29 272 45 l54 16 -20 46 c-49 115
-160 278 -267 393 l-61 65 -1 -282z"/>
<path d="M1024 2058 c-56 -59 -103 -120 -162 -209 -55 -82 -122 -211 -122
-232 0 -8 27 -20 69 -30 80 -19 249 -42 256 -35 3 3 4 127 3 277 l-3 272 -41
-43z"/>
<path d="M804 2061 c-140 -48 -267 -127 -374 -231 l-53 -52 29 -19 c38 -26
201 -109 214 -109 5 0 26 33 46 73 51 102 99 180 163 267 69 91 74 100 64 100
-4 0 -45 -13 -89 -29z"/>
<path d="M1360 2084 c0 -2 20 -29 44 -59 69 -84 124 -168 178 -274 28 -53 51
-97 53 -99 4 -4 173 82 209 107 l30 20 -63 60 c-74 71 -172 138 -265 182 -64
30 -186 71 -186 63z"/>
<path d="M284 1648 c-72 -113 -128 -276 -141 -405 l-6 -63 195 0 195 0 7 78
c3 42 17 124 31 181 14 57 24 105 23 105 -2 1 -32 15 -68 31 -63 29 -134 67
-184 100 -24 16 -25 16 -52 -27z"/>
<path d="M1880 1653 c-30 -18 -89 -50 -130 -69 -41 -20 -76 -37 -77 -38 -2 -1
6 -32 16 -67 17 -61 31 -138 46 -251 l6 -48 186 0 186 0 -6 68 c-4 37 -16 101
-27 142 -21 76 -111 270 -133 288 -8 6 -30 -2 -67 -25z"/>
<path d="M1532 1499 c-35 -13 -207 -46 -284 -54 l-68 -7 0 -129 0 -129 225 0
c132 0 225 4 225 9 0 67 -55 322 -69 320 -3 0 -16 -4 -29 -10z"/>
<path d="M690 1497 c0 -2 -9 -40 -20 -83 -11 -44 -23 -114 -26 -156 l-7 -78
217 0 216 0 0 129 0 129 -67 7 c-56 6 -166 25 -290 52 -13 3 -23 3 -23 0z"/>
<path d="M143 1003 c4 -38 16 -102 27 -143 21 -74 103 -254 138 -298 l19 -24
49 30 c27 17 88 50 137 73 77 37 87 44 81 63 -24 73 -45 175 -56 264 l-12 102
-195 0 -194 0 6 -67z"/>
<path d="M640 1032 c0 -49 15 -135 42 -235 19 -71 23 -78 42 -74 60 15 238 47
289 52 l57 6 0 145 0 144 -215 0 -215 0 0 -38z"/>
<path d="M1180 926 l0 -145 48 -6 c140 -17 213 -30 269 -46 l63 -17 15 50 c19
64 41 176 50 251 l6 57 -225 0 -226 0 0 -144z"/>
<path d="M1735 1023 c-13 -104 -36 -225 -55 -285 -11 -35 -15 -64 -11 -66 28
-9 174 -84 210 -106 l42 -27 19 23 c37 43 120 223 140 301 11 43 23 108 26
143 l7 64 -186 0 -186 0 -6 -47z"/>
<path d="M960 659 c-106 -13 -210 -39 -210 -52 1 -42 168 -296 264 -402 l55
-60 1 263 0 262 -22 -1 c-13 -1 -52 -5 -88 -10z"/>
<path d="M1180 404 l0 -268 46 44 c68 67 182 221 241 330 l53 95 -28 12 c-32
13 -164 38 -254 48 l-58 6 0 -267z"/>
<path d="M535 531 c-55 -27 -109 -57 -120 -65 -20 -16 -19 -17 25 -57 116
-105 240 -179 373 -223 42 -14 82 -26 87 -26 6 0 -10 25 -34 55 -66 81 -118
160 -176 268 -29 54 -53 97 -53 97 -1 0 -47 -22 -102 -49z"/>
<path d="M1564 463 c-48 -87 -133 -212 -196 -290 -15 -18 81 11 169 52 88 41
189 108 263 176 64 58 67 53 -59 117 -123 64 -110 68 -177 -55z"/>
</g>
</svg>
